#!OML:ASF X:\für Bonn\!DataBase\2005_08_10_Bjorn_Final\c3d\bjorn.ASF
:FULLY-SPECIFIED
:DEGREES
156
root -1.40198 18.6661 14.6055 -181.691 29.2743 176.561
lowerback -7.28961 4.98724 1.80337
upperback 5.82027 7.10759 -3.44905
thorax 11.0324 3.83169 -3.48718
lowerneck -6.41569 3.08087 5.86124
upperneck 0.190812 3.90742 -6.86489
head 1.46859 1.88009 -3.12785
rclavicle 1.73937e-014 -3.06128e-014
rhumerus 51.7192 24.9701 -77.736
rradius 70.2026
rwrist 35.4784
rhand -51.323 9.59993
rfingers 7.12502
rthumb -23.8584 -18.9383
lclavicle 1.73937e-014 -3.06128e-014
lhumerus 32.6289 -23.2637 87.6261
lradius 77.6924
lwrist 49.1825
lhand -49.1126 -6.91161
lfingers 7.12502
lthumb -21.7372 21.8879
rfemur 537.93 -169.201 -527.456
rtibia 31.5556
rfoot -27.6018 17.548
rtoes -13.1927
lfemur 334.675 1.30117 348.877
ltibia 39.676
lfoot -5.13188 4.79746
ltoes -25.8587
157
root -1.40345 18.6464 14.5879 -181.855 29.4242 176.559
lowerback -6.84809 4.98043 1.85905
upperback 5.91532 7.10236 -3.41596
thorax 10.8762 3.83998 -3.51679
lowerneck -6.41479 3.10691 5.92798
upperneck -0.00160663 3.93732 -6.95658
head 1.41248 1.89695 -3.17074
rclavicle -1.61016e-014 -4.37326e-015
rhumerus 51.1404 25.189 -77.8543
rradius 70.923
rwrist 35.4678
rhand -51.3477 9.71733
rfingers 7.12502
rthumb -23.8821 -18.8178
lclavicle -1.61016e-014 -4.37326e-015
lhumerus 31.9792 -23.5608 87.8092
lradius 78.42
lwrist 48.9944
lhand -49.0771 -6.93505
lfingers 7.12502
lthumb -21.7031 21.8684
rfemur 538.026 -169.414 -527.502
rtibia 31.7939
rfoot -27.7626 17.4625
rtoes -13.5161
lfemur 334.382 1.47578 348.825
ltibia 40.3983
lfoot -4.95893 4.54124
ltoes -26.6032
158
root -1.40446 18.6253 14.5691 -182.028 29.5937 176.545
lowerback -6.42724 4.96928 1.90711
upperback 6.04049 7.09769 -3.38958
thorax 10.7665 3.85 -3.54629
lowerneck -6.41714 3.15026 6.06026
upperneck -0.262681 3.98596 -7.10314
head 1.33958 1.92372 -3.24447
rclavicle -9.67087e-014 2.8625e-014
rhumerus 50.6186 25.4098 -77.9618
rradius 71.6875
rwrist 35.4373
rhand -51.3533 9.77436
rfingers 7.12502
rthumb -23.8874 -18.7601
lclavicle -9.67087e-014 2.8625e-014
lhumerus 31.4605 -23.8424 87.9495
lradius 79.0954
lwrist 48.8244
lhand -49.0834 -7.05521
lfingers 7.12502
lthumb -21.7091 21.7475
rfemur 538.095 -169.748 -527.531
rtibia 32.0735
rfoot -27.9744 17.2328
rtoes -13.893
lfemur 334.093 1.61783 348.78
ltibia 41.0678
lfoot -4.87161 4.25321
ltoes -27.0354
159
root -1.40652 18.6024 14.5478 -182.199 29.7733 176.545
lowerback -5.99952 4.9575 1.98583
upperback 6.17606 7.09071 -3.36071
thorax 10.668 3.86183 -3.59067
lowerneck -6.41388 3.19079 6.15998
upperneck -0.55439 4.03254 -7.22714
head 1.25404 1.95054 -3.30464
rclavicle 6.7885e-014 -3.29983e-014
rhumerus 50.1154 25.6456 -78.0585
rradius 72.4603
rwrist 35.4224
rhand -51.3702 9.73811
rfingers 7.12502
rthumb -23.9037 -18.7942
lclavicle 6.7885e-014 -3.29983e-014
lhumerus 30.9271 -24.1415 88.0888
lradius 79.7909
lwrist 48.6376
lhand -49.0964 -7.32216
lfingers 7.12502
lthumb -21.7216 21.4791
rfemur 538.156 -170.07 -527.56
rtibia 32.403
rfoot -28.2019 17.0597
rtoes -14.2654
lfemur 333.808 1.72025 348.758
ltibia 41.6977
lfoot -4.92501 3.7924
ltoes -27.0998
160
root -1.40832 18.5774 14.5264 -182.395 29.9426 176.554
lowerback -5.53192 4.94036 2.08944
upperback 6.32586 7.08142 -3.3552
thorax 10.5683 3.87775 -3.67699
lowerneck -6.44817 3.23735 6.33153
upperneck -0.817646 4.08075 -7.36025
head 1.18706 1.97712 -3.38168
rclavicle 3.20043e-014 -6.75868e-015
rhumerus 49.6475 25.8577 -78.136
rradius 73.2581
rwrist 35.3539
rhand -51.3998 9.57314
rfingers 7.12502
rthumb -23.932 -18.9554
lclavicle 3.20043e-014 -6.75868e-015
lhumerus 30.4291 -24.4618 88.1672
lradius 80.4734
lwrist 48.4027
lhand -49.0892 -7.5912
lfingers 7.12502
lthumb -21.7147 21.2109
rfemur 538.231 -170.438 -527.562
rtibia 32.7734
rfoot -28.4641 16.765
rtoes -14.8
lfemur 333.548 1.74288 348.767
ltibia 42.27
lfoot -5.01969 3.10779
ltoes -26.827
161
root -1.41095 18.5506 14.5028 -182.607 30.1303 176.54
lowerback -5.03858 4.93439 2.17659
upperback 6.46883 7.08963 -3.34576
thorax 10.4445 3.90078 -3.74985
lowerneck -6.45115 3.27851 6.49875
upperneck -1.0907 4.12327 -7.49316
head 1.11084 2.00151 -3.45877
rclavicle 5.48646e-014 -4.65156e-014
rhumerus 49.1807 26.0454 -78.1953
rradius 74.0843
rwrist 35.291
rhand -51.3964 9.42753
rfingers 7.12502
rthumb -23.9288 -19.1015
lclavicle 5.48646e-014 -4.65156e-014
lhumerus 29.8855 -24.8237 88.2715
lradius 81.2072
lwrist 48.165
lhand -49.0984 -7.84864
lfingers 7.12502
lthumb -21.7235 20.9524
rfemur 538.289 -170.864 -527.576
rtibia 33.1854
rfoot -28.7726 16.4306
rtoes -15.4116
lfemur 333.285 1.74984 348.772
ltibia 42.7925
lfoot -5.15287 2.32202
ltoes -26.0587
162
root -1.4146 18.5217 14.4776 -182.821 30.2976 176.524
lowerback -4.54242 4.90738 2.25875
upperback 6.6173 7.07161 -3.3336
thorax 10.3215 3.91109 -3.82134
lowerneck -6.44178 3.31916 6.6076
upperneck -1.38473 4.16925 -7.5933
head 1.02323 2.0288 -3.51358
rclavicle 5.725e-014 1.86858e-014
rhumerus 48.7546 26.2642 -78.2315
rradius 74.886
rwrist 35.2047
rhand -51.5137 9.45232
rfingers 7.12502
rthumb -24.0412 -19.0619
lclavicle 5.725e-014 1.86858e-014
lhumerus 29.3509 -25.1602 88.3728
lradius 81.9407
lwrist 47.8441
lhand -49.1632 -8.03619
lfingers 7.12502
lthumb -21.7857 20.7577
rfemur 538.336 -171.261 -527.602
rtibia 33.6478
rfoot -29.0812 16.1072
rtoes -15.9526
lfemur 333.015 1.62409 348.805
ltibia 43.2629
lfoot -5.26509 1.66424
ltoes -24.7798
163
root -1.41792 18.49 14.451 -183.019 30.456 176.532
lowerback -4.0236 4.87422 2.35553
upperback 6.75932 7.04412 -3.31525
thorax 10.178 3.91743 -3.89799
lowerneck -6.45127 3.36027 6.6908
upperneck -1.66669 4.21627 -7.64759
head 0.94089 2.05676 -3.54743
rclavicle -1.31198e-014 1.66979e-014
rhumerus 48.3579 26.4862 -78.231
rradius 75.7063
rwrist 35.0421
rhand -51.5692 9.3566
rfingers 7.12502
rthumb -24.0945 -19.1506
lclavicle -1.31198e-014 1.66979e-014
lhumerus 28.7959 -25.5097 88.5001
lradius 82.6758
lwrist 47.5163
lhand -49.2189 -8.26252
lfingers 7.12502
lthumb -21.8393 20.5251
rfemur 538.353 -171.65 -527.592
rtibia 34.1693
rfoot -29.4679 15.6699
rtoes -16.7953
lfemur 332.725 1.52035 348.869
ltibia 43.692
lfoot -5.3358 1.06302
ltoes -23.6418
164
root -1.42163 18.4564 14.4225 -183.199 30.6178 176.556
lowerback -3.48849 4.82433 2.44724
upperback 6.88167 6.99157 -3.28399
thorax 9.99756 3.90902 -3.96396
lowerneck -6.42114 3.42728 6.78951
upperneck -1.95252 4.29963 -7.74587
head 0.855055 2.10321 -3.59908
rclavicle -6.06293e-015 -1.47101e-014
rhumerus 47.9554 26.7529 -78.2438
rradius 76.5582
rwrist 34.9151
rhand -51.6144 9.29846
rfingers 7.12502
rthumb -24.1379 -19.203
lclavicle -6.06293e-015 -1.47101e-014
lhumerus 28.1808 -25.8313 88.624
lradius 83.498
lwrist 47.2074
lhand -49.333 -8.43044
lfingers 7.12502
lthumb -21.9488 20.3444
rfemur 538.331 -172.041 -527.565
rtibia 34.7623
rfoot -29.8811 15.1897
rtoes -17.7677
lfemur 332.419 1.34861 348.965
ltibia 44.0817
lfoot -5.40511 0.486009
ltoes -22.7348
165
root -1.42618 18.4205 14.3926 -183.329 30.7767 176.592
lowerback -2.99161 4.77253 2.54439
upperback 7.00174 6.93584 -3.24895
thorax 9.83745 3.89869 -4.02574
lowerneck -6.45547 3.49037 6.85145
upperneck -2.20512 4.37846 -7.81863
head 0.789346 2.14681 -3.63414
rclavicle -1.00088e-013 3.10104e-014
rhumerus 47.5975 27.0118 -78.1915
rradius 77.4449
rwrist 34.709
rhand -51.6862 9.26497
rfingers 7.12502
rthumb -24.2066 -19.2273
lclavicle -1.00088e-013 3.10104e-014
lhumerus 27.5828 -26.1764 88.7476
lradius 84.3648
lwrist 46.9161
lhand -49.4763 -8.56357
lfingers 7.12502
lthumb -22.0864 20.1951
rfemur 538.21 -172.443 -527.516
rtibia 35.445
rfoot -30.3074 14.6595
rtoes -18.666
lfemur 332.05 1.18924 349.076
ltibia 44.4348
lfoot -5.43836 -0.0924772
ltoes -22.3135
166
root -1.43058 18.38 14.3617 -183.401 30.9073 176.648
lowerback -2.54234 4.7081 2.64901
upperback 7.13024 6.86568 -3.2251
thorax 9.71632 3.883 -4.10041
lowerneck -6.58825 3.57011 6.96662
upperneck -2.40908 4.47308 -7.91061
head 0.760378 2.19612 -3.68423
rclavicle -5.69518e-014 2.66371e-014
rhumerus 47.3278 27.2399 -78.1576
rradius 78.2908
rwrist 34.5683
rhand -51.7651 9.26681
rfingers 7.12502
rthumb -24.2823 -19.2154
lclavicle -5.69518e-014 2.66371e-014
lhumerus 26.9979 -26.5163 88.8832
lradius 85.2704
lwrist 46.578
lhand -49.5387 -8.68575
lfingers 7.12502
lthumb -22.1463 20.0658
rfemur 537.994 -172.775 -527.447
rtibia 36.2243
rfoot -30.7595 14.1224
rtoes -19.5807
lfemur 331.616 1.00234 349.217
ltibia 44.751
lfoot -5.47712 -0.620514
ltoes -22.1864
